<svg xmlns:xlink="http://www.w3.org/1999/xlink" xmlns="http://www.w3.org/2000/svg" width="320" height="360" viewBox="0 0 320 360" fill="none"><path d="M119.889 271.328L121.645 268.394L131.682 251.971L143.56 232.614C147.073 226.833 145.233 219.291 139.461 215.689C132.017 211.079 126.496 204.292 123.485 196.583C120.474 188.791 119.889 180.076 122.231 171.613C124.573 163.15 129.592 156.027 136.283 151C142.891 145.972 151.172 143.04 159.871 143.04C168.57 143.04 176.851 145.972 183.459 151C190.067 156.027 195.085 163.15 197.511 171.613C199.853 180.076 199.351 188.791 196.257 196.583C193.245 204.377 187.725 211.164 180.281 215.689C174.509 219.208 172.668 226.749 176.181 232.614L194.416 262.445L199.937 271.411C193.998 274.092 187.892 276.103 181.619 277.528C174.509 279.12 167.148 279.623 159.871 279.623C159.202 279.623 158.449 279.623 157.78 279.623C144.647 279.623 131.766 276.774 119.805 271.243M81.83 124.019C94.1258 107.51 111.524 94.9421 132.184 88.8246C152.845 82.708 174.341 83.7136 193.58 90.8357C212.818 97.9587 229.798 111.114 241.592 129.213C253.386 147.313 258.489 168.261 257.15 188.791C255.812 209.32 248.116 229.431 234.148 245.854C230.049 250.631 225.616 254.904 220.932 258.758L215.411 249.793L203.031 229.514C210.225 222.895 215.746 214.766 219.259 205.801C224.194 193.148 225.114 178.987 221.266 165.245C217.419 151.502 209.221 139.855 198.431 131.643C187.641 123.432 174.258 118.739 160.038 118.739C145.818 118.739 132.436 123.516 121.645 131.643C110.855 139.855 102.658 151.419 98.8099 165.245C94.9623 178.987 95.8824 193.148 100.817 205.801C104.33 214.683 109.767 222.895 117.045 229.514L70.4543 305.683C69.9524 306.521 69.1996 307.108 68.4468 307.443C67.6103 307.778 66.6903 307.778 65.7702 307.526C64.8501 307.275 64.0972 306.772 63.5954 306.102C63.0935 305.432 62.8426 304.51 62.8426 303.504V182.59C62.8426 161.055 69.9524 140.693 82.2483 124.186M125.242 65.1953C99.3118 72.9044 77.4805 88.6571 62.1734 109.271C46.8663 129.8 38 155.273 38 182.338V303.253C38 309.705 40.0912 315.738 43.7715 320.598C47.4519 325.458 52.7215 329.145 58.9113 330.905C65.101 332.665 71.458 332.245 77.1459 330.067C82.8338 327.805 87.7688 323.782 91.1982 318.252L94.2931 313.224L107.007 292.36C123.569 300.32 141.636 304.51 160.038 304.426C160.54 304.426 163.384 304.426 163.969 304.426C171.749 304.174 179.527 303.169 187.139 301.41C212.149 295.711 235.402 282.053 252.884 261.44C270.45 240.826 280.153 215.689 281.741 190.047C283.414 164.407 276.974 138.263 262.252 115.555C247.531 92.8468 226.201 76.3396 202.112 67.5415C188.728 62.5972 174.509 60 160.038 60C145.568 60 136.784 61.6759 125.325 65.0277" fill="url(#paint0_linear_729_2)"></path><defs><linearGradient id="paint0_linear_729_2" x1="32.5631" y1="309.956" x2="246.571" y2="96.3275" gradientUnits="userSpaceOnUse"><stop stop-color="white"></stop><stop offset="0.4" stop-color="#FCFBF9"></stop><stop offset="0.9" stop-color="#F6F1EA"></stop><stop offset="1" stop-color="#F4EEE5"></stop></linearGradient></defs></svg>